<svg width="512" height="512" viewBox="0 0 512 512" fill="none" xmlns="http://www.w3.org/2000/svg">
<rect width="512" height="512" rx="24" fill="url(#paint0_linear_1_6)"/>
<g filter="url(#filter0_d_1_6)">
<path d="M256 145C181.909 145 118.635 191.028 93 256C118.635 320.972 181.909 367 256 367C330.091 367 393.365 320.972 419 256C393.365 191.028 330.091 145 256 145ZM256 330C215.102 330 181.909 296.848 181.909 256C181.909 215.152 215.102 182 256 182C296.898 182 330.091 215.152 330.091 256C330.091 296.848 296.898 330 256 330ZM256 211.6C231.402 211.6 211.545 231.432 211.545 256C211.545 280.568 231.402 300.4 256 300.4C280.598 300.4 300.455 280.568 300.455 256C300.455 231.432 280.598 211.6 256 211.6Z" fill="white"/>
</g>
<defs>
<filter id="filter0_d_1_6" x="93" y="145" width="356" height="252" filterUnits="userSpaceOnUse" color-interpolation-filters="sRGB">
<feFlood flood-opacity="0" result="BackgroundImageFix"/>
<feColorMatrix in="SourceAlpha" type="matrix" values="0 0 0 0 0 0 0 0 0 0 0 0 0 0 0 0 0 0 127 0" result="hardAlpha"/>
<feOffset dx="20" dy="20"/>
<feGaussianBlur stdDeviation="5"/>
<feComposite in2="hardAlpha" operator="out"/>
<feColorMatrix type="matrix" values="0 0 0 0 0 0 0 0 0 0 0 0 0 0 0 0 0 0 0.25 0"/>
<feBlend mode="normal" in2="BackgroundImageFix" result="effect1_dropShadow_1_6"/>
<feBlend mode="normal" in="SourceGraphic" in2="effect1_dropShadow_1_6" result="shape"/>
</filter>
<linearGradient id="paint0_linear_1_6" x1="0" y1="0" x2="512" y2="512" gradientUnits="userSpaceOnUse">
<stop stop-color="#AA4465"/>
<stop offset="1" stop-color="#861657"/>
</linearGradient>
</defs>
</svg>
